<?xml version="1.0" encoding="utf-8"?>
<!-- Generator: Adobe Illustrator 23.1.1, SVG Export Plug-In . SVG Version: 6.00 Build 0)  -->
<svg version="1.1" id="Layer_1" xmlns="http://www.w3.org/2000/svg" xmlns:xlink="http://www.w3.org/1999/xlink" x="0px" y="0px"
	 viewBox="0 0 1920 1080" style="enable-background:new 0 0 1920 1080;" xml:space="preserve">
<style type="text/css">
	.st0{fill:#515FAD;}
</style>
<g>
	<rect x="0.5" y="0.5" width="1919" height="1079"/>
	<path d="M1919,1v1078H1V1H1919 M1920,0H0v1080h1920V0L1920,0z"/>
</g>
<g>
	<path class="st0" d="M1504.5,917.5c-50.09,0-98.68-9.47-144.42-28.14c-44.18-18.03-83.86-43.85-117.93-76.73
		c-34.07-32.88-60.82-71.16-79.5-113.79c-19.34-44.13-29.15-91.02-29.15-139.34s9.81-95.21,29.15-139.34
		c18.68-42.63,45.43-80.92,79.5-113.79c34.07-32.88,73.75-58.69,117.93-76.73c45.74-18.67,94.33-28.14,144.42-28.14
		s98.68,9.47,144.42,28.14c44.18,18.03,83.86,43.85,117.93,76.73c34.07,32.88,60.82,71.16,79.5,113.79
		c19.34,44.13,29.15,91.02,29.15,139.34s-9.81,95.21-29.15,139.34c-18.68,42.63-45.43,80.92-79.5,113.79
		c-34.07,32.88-73.75,58.69-117.93,76.73C1603.18,908.03,1554.59,917.5,1504.5,917.5z"/>
	<path d="M1504.5,202c50.02,0,98.55,9.45,144.23,28.1c44.12,18.01,83.74,43.79,117.77,76.62c34.02,32.83,60.74,71.07,79.39,113.64
		c19.32,44.07,29.11,90.88,29.11,139.14s-9.79,95.07-29.11,139.14c-18.66,42.57-45.37,80.8-79.39,113.64
		c-34.03,32.84-73.65,58.62-117.77,76.62c-45.68,18.64-94.2,28.1-144.23,28.1s-98.55-9.45-144.23-28.1
		c-44.12-18.01-83.74-43.79-117.77-76.62c-34.02-32.83-60.74-71.07-79.39-113.64c-19.32-44.07-29.11-90.88-29.11-139.14
		s9.79-95.07,29.11-139.14c18.66-42.57,45.37-80.8,79.39-113.64c34.03-32.84,73.65-58.62,117.77-76.62
		C1405.95,211.45,1454.48,202,1504.5,202 M1504.5,201c-205.17,0-371.5,160.51-371.5,358.5S1299.33,918,1504.5,918
		S1876,757.49,1876,559.5S1709.67,201,1504.5,201L1504.5,201z"/>
</g>
</svg>
