<svg xmlns="http://www.w3.org/2000/svg" viewBox="0 0 475.96 471.4"><title>Asset 1</title><path d="M20.82,281.5,154.72,300l-65.3,95a8.11,8.11,0,0,0-.9,7.4,7.75,7.75,0,0,0,5.5,4.9l32,8a8.08,8.08,0,0,0,7.3-1.8L247,312.3l63.7,5.8c8.2.7,18.4,1.1,28.9,1.1a401.27,401.27,0,0,0,45.2-2.3l21.1-2.6a156.74,156.74,0,0,0,43-11.7l15.2-6.5a19.57,19.57,0,0,0,2.1-34.9l-46.2-27a136.07,136.07,0,0,0-68.4-18.5h-60.3l-92.5-105.1a8.42,8.42,0,0,0-6.1-2.7l-32.9.6a7.72,7.72,0,0,0-6.6,3.7,8.18,8.18,0,0,0-.5,7.6l42.9,95.9H84.92l-37.7-75.5a8.15,8.15,0,0,0-7.2-4.4H8a8,8,0,0,0-6.1,2.8,8.09,8.09,0,0,0-1.8,6.5l15,90.1-1.8.9a24.08,24.08,0,0,0,7.5,45.4Zm104.9,117.3L109,394.6l78.7-114.5,64.9,5.9-11.1,9.8-1.1-.1-.1,1.2Zm46.4-274.5,17.2-.3,80.8,91.8H213ZM31.92,238.4l-14.4-86.6H35l37.7,75.5a8,8,0,0,0,7.2,4.4h271.7a119.38,119.38,0,0,1,58.7,15.4l2.5,5-7.1,3.6h-30.1v16h32a9,9,0,0,0,3.6-.8l16-8a7.62,7.62,0,0,0,3.6-3.9l27.5,16.1a3.56,3.56,0,0,1,1.8,3.3,3.61,3.61,0,0,1-2.2,3.1l-15.2,6.5A144.15,144.15,0,0,1,404,298.5l-21.1,2.6a397.78,397.78,0,0,1-70.71,1.2l-48.79-4.4L277,285.8a7.87,7.87,0,0,0,2.4-8.5,8,8,0,0,0-7-5.5l-87.9-8a8,8,0,0,0-7.3,3.4l-12.4,18.1L23,265.7a8.11,8.11,0,0,1-2.5-15.3l7.1-3.5A8.19,8.19,0,0,0,31.92,238.4Z" fill="#f26247"/><path d="M103.92,239.7h16v16h-16Z" fill="#f26247"/><path d="M135.92,239.7h16v16h-16Z" fill="#f26247"/><path d="M167.82,239.7h16v16h-16Z" fill="#f26247"/><path d="M199.82,239.7h16v16h-16Z" fill="#f26247"/><path d="M231.82,239.7h16v16h-16Z" fill="#f26247"/><path d="M263.72,239.7h16v16h-16Z" fill="#f26247"/><path d="M295.72,239.7h16v16h-16Z" fill="#f26247"/><path d="M438.72,72.3a32,32,0,0,0-58.9-8.1,24,24,0,0,0-22,7.7,28,28,0,0,0-10.3,54.6,8.32,8.32,0,0,0,4.3,1.3h95.9a7.21,7.21,0,0,0,4-1.2,28,28,0,0,0-8-54.8A38.46,38.46,0,0,0,438.72,72.3Zm16.8,27.6a11.89,11.89,0,0,1-9.6,11.7c-.3.1-.6.1-.9.2h-90.9a2.92,2.92,0,0,0-.9-.2,12,12,0,0,1,2.4-23.8,9.74,9.74,0,0,1,3.4.6,8.1,8.1,0,0,0,9.5-4.1,8,8,0,0,1,11.4-3.2,7.9,7.9,0,0,0,7.3.7,8.18,8.18,0,0,0,4.8-5.6,15.91,15.91,0,0,1,31.1,6.6,8,8,0,0,0,12.8,7.7,12.2,12.2,0,0,1,12.7-1.6A11.79,11.79,0,0,1,455.52,99.9Z" fill="#56bd91"/><path d="M283.72,415.5a27,27,0,0,0-4.9.4,32,32,0,0,0-58.9-8.1,24,24,0,0,0-22,7.7,28,28,0,0,0-10.3,54.6,8.32,8.32,0,0,0,4.3,1.3h95.9a7.21,7.21,0,0,0,4-1.2,27.92,27.92,0,0,0-8.1-54.7Zm2.4,39.8c-.3.1-.6.1-.9.2h-90.9a2.92,2.92,0,0,0-.9-.2,12,12,0,0,1,2.4-23.8,9.74,9.74,0,0,1,3.4.6,8.1,8.1,0,0,0,9.5-4.1,8,8,0,0,1,11.4-3.2,7.9,7.9,0,0,0,7.3.7,8.18,8.18,0,0,0,4.8-5.6,15.91,15.91,0,0,1,31.1,6.6,8,8,0,0,0,12.8,7.7,11.93,11.93,0,0,1,13.6-1.1,12.06,12.06,0,0,1,5.8,12.4A11.8,11.8,0,0,1,286.12,455.3Z" fill="#56bd91"/><path d="M119,24.4a32,32,0,0,0-59-8.1A24,24,0,0,0,38,24a28,28,0,0,0-10.3,54.6A8.32,8.32,0,0,0,32,79.9h95.9a7.21,7.21,0,0,0,4-1.2,28,28,0,0,0-8-54.8A26.26,26.26,0,0,0,119,24.4Zm16.9,27.5a11.89,11.89,0,0,1-9.6,11.7c-.3.1-.6.1-.9.2H34.52a2.92,2.92,0,0,0-.9-.2A12,12,0,0,1,36,39.8a9.74,9.74,0,0,1,3.4.6,8.1,8.1,0,0,0,9.5-4.1,8,8,0,0,1,11.4-3.2,7.9,7.9,0,0,0,7.3.7,8.18,8.18,0,0,0,4.8-5.6,15.91,15.91,0,0,1,31.1,6.6,8,8,0,0,0,12.8,7.7,12,12,0,0,1,19.6,9.4Z" fill="#56bd91"/></svg>