<?xml version="1.0" encoding="utf-8"?>
<!-- Generator: Adobe Illustrator 23.1.1, SVG Export Plug-In . SVG Version: 6.00 Build 0)  -->
<svg version="1.1" id="Layer_1" xmlns="http://www.w3.org/2000/svg" xmlns:xlink="http://www.w3.org/1999/xlink" x="0px" y="0px"
	 viewBox="0 0 152.9 159.8" style="enable-background:new 0 0 152.9 159.8;" xml:space="preserve">
<style type="text/css">
	.st0{fill:#242424;}
	.st1{fill:#0F161A;}
	.st2{opacity:0.2;}
	.st3{fill:#588199;}
	.st4{fill:#66401E;}
	.st5{fill:#FFEACC;}
</style>
<title>Asset 1</title>
<ellipse class="st0" cx="77.1" cy="80.3" rx="75.8" ry="79.5"/>
<path class="st1" d="M77.1,157.8c-40.8,0-73.9-34.8-73.9-77.5S36.3,2.8,77.1,2.8S151,37.5,151,80.3S117.9,157.8,77.1,157.8z"/>
<g class="st2">
	<path class="st3" d="M24.9,25.5C-4,56.3-4,104.2,24.9,135.1l52.2-54.8L24.9,25.5z"/>
	<path class="st3" d="M151,80.3c0.1-20.4-7.7-40-21.7-54.8L77.1,80.3l52.2,54.8C143.3,120.3,151.1,100.6,151,80.3z"/>
</g>
<path class="st4" d="M77.1,110.1c-15.7,0-28.4-13.4-28.4-29.8s12.8-29.8,28.4-29.8s28.4,13.4,28.4,29.8S92.8,110.1,77.1,110.1z"/>
<path class="st5" d="M77.1,106.1c-13.6,0-24.6-11.6-24.6-25.8s11-25.8,24.6-25.8s24.6,11.6,24.6,25.8S90.7,106.1,77.1,106.1z"/>
<ellipse class="st0" cx="77.1" cy="80.3" rx="1.9" ry="2"/>
</svg>
